<svg width="24" height="24" viewBox="0 0 24 24" fill="none" xmlns="http://www.w3.org/2000/svg">
<g clip-path="url(#clip0_4121_406)">
<path d="M5.53308 12.0649L14.1585 3.43947C14.3198 3.27821 14.5385 3.18761 14.7665 3.18761C14.9946 3.18761 15.2133 3.2782 15.3746 3.43946L23.3919 11.4568C23.5532 11.6181 23.6438 11.8368 23.6438 12.0649C23.6438 12.2929 23.5532 12.5117 23.3919 12.6729L15.3746 20.6903C15.2133 20.8516 14.9946 20.9422 14.7665 20.9422C14.5385 20.9422 14.3198 20.8516 14.1585 20.6903L5.53308 12.0649Z" fill="#FEC80E"/>
<path d="M11.0653 6.53229L15.99 11.457C16.1513 11.6182 16.2418 11.8369 16.2418 12.065C16.2418 12.2931 16.1512 12.5118 15.99 12.673L11.0653 17.5977L5.53259 12.065L11.0653 6.53229Z" fill="#7208B7"/>
<path d="M0.609254 5.92468L4.9259 1.60803C5.08716 1.44677 5.30588 1.35618 5.53394 1.35618C5.76199 1.35618 5.98071 1.44677 6.14197 1.60803L11.0667 6.53271L5.53394 12.0654L0.609255 7.14075C0.447994 6.97949 0.357398 6.76077 0.357398 6.53271C0.357398 6.30466 0.447994 6.08594 0.609254 5.92468Z" fill="#F73C9A"/>
<path d="M5.53271 12.0649L11.0654 17.5977L6.14075 22.5223C5.97949 22.6836 5.76077 22.7742 5.53271 22.7742C5.30466 22.7742 5.08594 22.6836 4.92468 22.5223L0.608033 18.2057C0.446772 18.0444 0.356177 17.8257 0.356177 17.5977C0.356177 17.3696 0.446771 17.1509 0.608032 16.9896L5.53271 12.0649Z" fill="#04C9FB"/>
</g>
<defs>
<clipPath id="clip0_4121_406">
<rect width="24" height="24" fill="white"/>
</clipPath>
</defs>
</svg>
